# xmcd CD database file
#
# Track frame offsets:
#	150
#	29628
#	44315
#	64725
#	86687
#	103788
#	143122
#
# Disc length: 2331 seconds
#
# Revision: 0
# Processed by: cddbd v1.5.1PL0 Copyright (c) Steve Scherf et al.
# Submitted via: CDex 1.51
#
DISCID=5f091907
DTITLE=Magic Slim and The Teardrops - Raw Magic
DYEAR=1983
DGENRE=Blues
TTITLE0=You Can't Lose What You Never Had
TTITLE1=Gravel Road
TTITLE2=Ain't Doing Too Bad
TTITLE3=Why Does A Woman Treat A Good Man So Bad
TTITLE4=Mama Talk To Your Daughter
TTITLE5=Mustang Sally
TTITLE6=In The Heart Of The Blues
EXTD=YEAR: 1983
EXTT0=
EXTT1=
EXTT2=
EXTT3=
EXTT4=
EXTT5=
EXTT6=
PLAYORDER=
